<svg width="800" height="800" viewBox="0 0 800 800" fill="none" xmlns="http://www.w3.org/2000/svg">
  <rect width="800" height="800" fill="#0f172a"/>
  <line x1="0" y1="100" x2="800" y2="100" stroke="#1e293b" stroke-width="2"/>
  <line x1="0" y1="200" x2="800" y2="200" stroke="#1e293b" stroke-width="2"/>
  <line x1="0" y1="300" x2="800" y2="300" stroke="#1e293b" stroke-width="2"/>
  <line x1="0" y1="400" x2="800" y2="400" stroke="#1e293b" stroke-width="2"/>
  <line x1="0" y1="500" x2="800" y2="500" stroke="#1e293b" stroke-width="2"/>
  <line x1="0" y1="600" x2="800" y2="600" stroke="#1e293b" stroke-width="2"/>
  <line x1="0" y1="700" x2="800" y2="700" stroke="#1e293b" stroke-width="2"/>
  <line x1="100" y1="0" x2="100" y2="800" stroke="#1e293b" stroke-width="2"/>
  <line x1="200" y1="0" x2="200" y2="800" stroke="#1e293b" stroke-width="2"/>
  <line x1="300" y1="0" x2="300" y2="800" stroke="#1e293b" stroke-width="2"/>
  <line x1="400" y1="0" x2="400" y2="800" stroke="#1e293b" stroke-width="2"/>
  <line x1="500" y1="0" x2="500" y2="800" stroke="#1e293b" stroke-width="2"/>
  <line x1="600" y1="0" x2="600" y2="800" stroke="#1e293b" stroke-width="2"/>
  <line x1="700" y1="0" x2="700" y2="800" stroke="#1e293b" stroke-width="2"/>
</svg>
